<svg height="512pt" viewBox="-1 0 512 512" width="512pt" xmlns="http://www.w3.org/2000/svg"><path d="m505.636719 230.390625-60-60c-2.820313-2.8125-6.628907-4.390625-10.609375-4.390625h-360c-3.980469 0-7.789063 1.578125-10.609375 4.390625l-60 60c-3.269531 3.269531-4.789063 7.78125-4.300781 12.230469.441406.242187 254.730468 142.980468 255.171874 143.230468.4375-.25 254.207032-142.988281 254.648438-143.230468.488281-4.449219-1.03125-8.960938-4.300781-12.230469zm0 0" fill="#ff8533"/><path d="m505.636719 230.390625c-6.589844-6.589844-54.226563-54.230469-60-60-2.820313-2.8125-6.628907-4.390625-10.609375-4.390625h-180v219.699219c.160156.101562.25.152343.261718.152343.296876-.171874 119.546876-67.242187 194.738282-109.53125 34.53125-19.429687 59.769531-33.621093 59.910156-33.699218.511719-4.074219-.878906-8.8125-4.300781-12.230469zm0 0" fill="#ff6700"/><path d="m395.027344 0h-280c-30.328125 0-55 24.671875-55 55v221.980469l192.808594 108.230469c1.496093.84375 3.378906.859374 4.902343 0l192.289063-108.160157v-222.050781c0-30.328125-24.667969-55-55-55zm0 0" fill="#e8efff"/><path d="m395.027344 0h-140v385.839844c1.96875.222656-10.183594 6.625 195-108.789063v-222.050781c0-30.328125-24.667969-55-55-55zm0 0" fill="#ccdfff"/><path d="m509.667969 237.769531-254.378907 143.082031-254.902343-143.082031c-.535157 2.34375-.3593752-12.003906-.3593752 219.230469 0 30.328125 24.6718752 55 55.0000002 55h400c30.328125 0 55-24.671875 55-55 0-231.238281.175781-216.886719-.359375-219.230469zm0 0" fill="#f9e14e"/><path d="m509.738281 238.019531s-.023437-.058593-.070312-.25l-59.640625 33.550781-194.738282 109.53125-.261718-.152343v131.300781h200c30.328125 0 55-24.671875 55-55 0-219.351562.164062-217.816406-.289063-218.980469zm0 0" fill="#ffbf00"/><path d="m255.027344 62c-57.898438 0-105 47.101562-105 105v30c0 57.898438 47.101562 105 105 105h30c8.285156 0 15-6.714844 15-15s-6.714844-15-15-15h-30c-41.355469 0-75-33.644531-75-75v-30c0-41.355469 33.644531-75 75-75 41.355468 0 75 33.644531 75 75v30.332031c0 21.476563-30 20.460938-30-.332031v-30c0-24.8125-20.1875-45-45-45s-45 20.1875-45 45v30c0 38.441406 45.382812 59.191406 74.4375 33.992188 27.496094 25.484374 75.5625 8.660156 75.5625-33.660157v-30.332031c0-57.898438-47.101563-105-105-105zm0 150c-8.269532 0-15-6.730469-15-15v-30c0-8.269531 6.730468-15 15-15 8.269531 0 15 6.730469 15 15v30c0 8.269531-6.726563 15-15 15zm0 0" fill="#40b4f9"/><path d="m255.027344 62v30c41.03125 0 74.449218 33.101562 74.988281 74 .011719.328125.011719.671875.011719 1v30.328125c0 21.84375-30 19.660156-30 .671875v-31c0-.328125 0-.671875-.011719-1-.527344-24.351562-20.507813-44-44.988281-44v30c8.304687 0 15 6.769531 15 15v30c0 8.269531-6.730469 15-15 15v30.03125c10.171875.070312 20.558594-3.339844 29.441406-11.042969 27.488281 25.492188 75.558594 8.660157 75.558594-33.660156v-30.328125c0-57.871094-47.066406-105-105-105zm30 210h-30v30h30c8.28125 0 15-6.71875 15-15s-6.71875-15-15-15zm0 0" fill="#0097f1"/></svg>